<svg xmlns="http://www.w3.org/2000/svg" data-name="Layer 1" viewBox="0 0 512 512"><rect width="448.24" height="67.54" x="31.88" y="330.36" fill="#00efd1"/><path fill="#00acea" d="M441.86,300.58v6.35H156.88V244.58H385.86A56,56,0,0,1,441.86,300.58Z"/><path fill="#fedb41" d="M147.12,50.62A72.97,72.97,0,1,1,74.1,123.54,72.979,72.979,0,0,1,147.12,50.62Zm36.72,83.66.01-21.32-26.12-.02.02-26.12-21.32-.01-.02,26.11-26.11-.02-.02,21.33,26.12.01-.02,26.12,21.32.02.02-26.12Z"/><polygon fill="#00acea" points="183.85 112.96 183.84 134.28 157.72 134.26 157.7 160.38 136.38 160.36 136.4 134.24 110.28 134.23 110.3 112.9 136.41 112.92 136.43 86.81 157.75 86.82 157.73 112.94 183.85 112.96"/><path fill="#00acea" d="M126.86,273.58v4.35a29,29,0,0,1-29,29H77.88a21.01,21.01,0,0,1-21-21V265.58a21,21,0,0,1,21-21H97.86A29,29,0,0,1,126.86,273.58Z"/><path fill="#083863" d="M480,291.88a8,8,0,0,0-8,8V322H40V220.19a8,8,0,0,0-16,0V461.38a8,8,0,0,0,16,0V406H472v55.38a8,8,0,0,0,16,0V299.88A8,8,0,0,0,480,291.88ZM40,390V338H472v52Z"/><path fill="#083863" d="M77.88 315H97.86A37.221 37.221 0 0 0 135 277.93v-4.35c0-20.4-16.737-36.58-37.14-36.58H77.88A28.574 28.574 0 0 0 49 265.58v20.35A28.991 28.991 0 0 0 77.88 315zM65 265.58A12.56 12.56 0 0 1 77.88 253H97.86c11.579 0 21.14 9 21.14 20.58v4.35A21.2 21.2 0 0 1 97.86 299H77.88A12.972 12.972 0 0 1 65 285.93zM156.88 237a7.55 7.55 0 0 0-7.88 7.58v62.35a7.958 7.958 0 0 0 7.88 8.07H441.86a8.18 8.18 0 0 0 8.14-8.07v-6.35c0-35.289-28.85-63.58-64.14-63.58zm276.952 62H165V253H385.86A47.558 47.558 0 0 1 433.832 299zM147 205h.06c44.621 0 80.943-36.5 80.976-81.124A80.842 80.842 0 0 0 147.126 43h-.063A80.646 80.646 0 0 0 66.1 123.849C66.067 168.494 102.36 205 147 205zM101.162 77.807A64.352 64.352 0 0 1 147.063 59h.051a64.655 64.655 0 0 1 64.926 64.959A65.15 65.15 0 0 1 147.064 189h-.048A65.147 65.147 0 0 1 101.162 77.807z"/><path fill="#083863" d="M110.277,142.23l18.118.007-.015,18.117a7.839,7.839,0,0,0,7.992,7.816l21.32-.17h.008a7.682,7.682,0,0,0,8-7.709l.014-18.212,18.12-.079h.006a7.767,7.767,0,0,0,8-7.787l.01-21.284a7.986,7.986,0,0,0-8-7.987l-18.119,0,.014-18.117a7.993,7.993,0,0,0-2.34-5.657,7.911,7.911,0,0,0-5.656-2.25L136.434,79h0a7.919,7.919,0,0,0-8,7.9l-.014,18.112L110.306,105H110.3a7.958,7.958,0,0,0-8,7.943l-.02,21.3a7.979,7.979,0,0,0,8,7.982Zm8.015-21.284L136.4,121h.006a8.07,8.07,0,0,0,8-8.054l.014-18.122,5.32,0-.014,18.116a8,8,0,0,0,8,8l18.121.013,0,5.19L157.726,126h-.006a8.226,8.226,0,0,0-8,8.189l-.014,18.151-5.32.011.014-18.113a8,8,0,0,0-8-8l-18.115.014Z"/></svg>