<svg xmlns="http://www.w3.org/2000/svg" width="32" height="32" viewBox="0 0 32 32"><g transform="translate(152.465 -1214.866)"><path fill="#5bdadd" d="m -128.46875,1222.8623 0,8.5 c 0,3.047 -2.453,5.5 -5.5,5.5 -3.047,0 -5.5,-2.453 -5.5,-5.5 l 0,-8.5 z"/><path fill="#66f3f6" d="m -139.46875,202.5 0,8.5 c 0,3.047 2.453,5.5 5.5,5.5 0.32769,0 0.65711,-0.0393 0.96875,-0.0937 -2.57152,-0.46349 -4.5,-2.69723 -4.5,-5.40625 l 0,-8.5 -1.96875,0 z" transform="translate(0 1020.362)"/><path fill="#ff5855" d="m -131.96875,1231.3623 c 0,1.1046 -0.89543,2 -2,2 -1.10457,0 -2,-0.8954 -2,-2 0,-1.1046 1.71302,-3.5 2,-3.5 0.28698,0 2,2.3954 2,3.5 z"/><path fill="none" stroke="#373449" d="M-133.96875 1222.8623l0-4M-128.46875 1217.3623c0 0-8.99547 0-13 0-1.41421 0-3 1.5858-3 3 0 9.7572 0 26 0 26"/><path fill="none" stroke="#373449" stroke-linecap="round" stroke-linejoin="round" d="m -133.98192,1236.8623 0,2 c 0,0.065 2.46074,0 2.46074,0 0,2.1082 0,4 0,4 l -2.46074,0 c -0.0592,0 0,3 0,3"/><rect width="3" height="3" x="-135.469" y="1215.862" fill="#cdd7e0" stroke="#373449" stroke-linecap="round" stroke-linejoin="round" rx="0" ry="0"/><path fill="#41b9b9" d="m -128.46875,1222.8622 0,8.5 c 0,3.047 -2.453,5.5 -5.5,5.5 -0.32769,0 -0.65711,-0.039 -0.96875,-0.094 2.57152,-0.4635 4.5,-2.6973 4.5,-5.4063 l 0,-8.5 1.96875,0 z"/><path fill="none" stroke="#373449" stroke-linecap="round" stroke-linejoin="round" d="M-139.46875 1225.8623l11 0 0 0M-128.46875 1222.8623l0 8.5c0 3.047-2.453 5.5-5.5 5.5-3.047 0-5.5-2.453-5.5-5.5l0-8.5z"/><path fill="#ff866c" d="m -133.96875,207.5 c -0.28698,0 -2,2.3954 -2,3.5 0,1.1046 0.89543,2 2,2 0.16223,0 0.31771,-0.026 0.46875,-0.0625 -0.8627,-0.22196 -1.5,-1.00549 -1.5,-1.9375 0,-0.80745 0.89543,-2.28416 1.5,-3.03125 -0.21803,-0.26801 -0.39267,-0.46875 -0.46875,-0.46875 z" transform="translate(0 1020.362)"/><path fill="#e54141" d="m -133.96875,1227.8622 c 0.28698,0 2,2.3954 2,3.5 0,1.1046 -0.89543,2 -2,2 -0.16223,0 -0.31771,-0.026 -0.46875,-0.062 0.8627,-0.222 1.5,-1.0055 1.5,-1.9375 0,-0.8074 -0.89543,-2.2842 -1.5,-3.0312 0.21803,-0.2681 0.39267,-0.4688 0.46875,-0.4688 z"/><path fill="none" stroke="#373449" stroke-linecap="round" stroke-linejoin="round" d="m -131.96875,1231.3623 c 0,1.1046 -0.89543,2 -2,2 -1.10457,0 -2,-0.8954 -2,-2 0,-1.1046 1.71302,-3.5 2,-3.5 0.28698,0 2,2.3954 2,3.5 z"/></g></svg>