<svg xmlns="http://www.w3.org/2000/svg" width="16" height="16" viewBox="0 0 16 16"><g transform="translate(0 -1036.362)"><path fill="#fff" d="M4.5144238 1039.3622a.99999991.99999991 0 0 1-.9999874 1 .99999991.99999991 0 0 1-1.0000251-1 .99999991.99999991 0 0 1 1.0000251-1 .99999991.99999991 0 0 1 .9999874 1zM10.507129 1039.3622a.99999991.99999991 0 0 1-.9999873 1 .99999991.99999991 0 0 1-1.0000251-1 .99999991.99999991 0 0 1 1.0000251-1 .99999991.99999991 0 0 1 .9999873 1zM15.507217 1049.3621a.99999991.99999991 0 0 1-1.000025 1 .99999991.99999991 0 0 1-.999987-1 .99999991.99999991 0 0 1 .999987-1 .99999991.99999991 0 0 1 1.000025 1z"/><path fill="#c2e4f8" d="m 9.5142472,1041.8621 c 1.1080058,0 2.0000128,0.8363 2.0000128,1.875 l 0,6.2501 c 0,1.0387 -0.892007,1.875 -2.0000128,1.875 -1.1080062,0 -2.0000125,-0.8363 -2.0000125,-1.875 l 0,-6.2501 c 0,-1.0387 0.8920063,-1.875 2.0000125,-1.875 z"/><path fill="#fff" d="m 7.5142536,1044.8658 3.9999994,0 0,4 -3.9999994,0 z"/><path fill="#c2e4f8" d="m 3.5141341,1041.8622 c 1.1080062,0 2.0000125,0.8362 2.0000125,1.875 l 0,6.25 c 0,1.0388 -0.8920063,1.875 -2.0000125,1.875 -1.1080063,0 -1.9999747,-0.8362 -1.9999747,-1.875 l 0,-6.25 c 0,-1.0388 0.8919684,-1.875 1.9999747,-1.875 z"/><path fill="#fff" d="m 1.514277,1044.8658 3.9999995,0 0,4 -3.9999995,0 z"/><path fill="#249fe6" style="line-height:normal;text-indent:0;text-align:start;text-decoration-line:none;text-decoration-style:solid;text-decoration-color:#000;text-transform:none;block-progression:tb;isolation:auto;mix-blend-mode:normal" d="m 3.5136719,1041.3613 c -1.3595692,0 -2.5,1.05 -2.5,2.375 l 0,6.25 c 0,1.325 1.1404308,2.375 2.5,2.375 1.3595691,0 2.5,-1.0499 2.5,-2.375 l 0,-6.25 c 0,-1.325 -1.1404309,-2.375 -2.5,-2.375 z m 0,1 c 0.8564432,0 1.5,0.6225 1.5,1.375 l 0,6.25 c 0,0.7526 -0.6435568,1.375 -1.5,1.375 -0.8564434,0 -1.5,-0.6224 -1.5,-1.375 l 0,-6.25 c 0,-0.7526 0.6435566,-1.375 1.5,-1.375 z" color="#000" font-family="sans-serif" font-weight="400" overflow="visible"/><path fill="#249fe6" style="line-height:normal;text-indent:0;text-align:start;text-decoration-line:none;text-decoration-style:solid;text-decoration-color:#000;text-transform:none;block-progression:tb;isolation:auto;mix-blend-mode:normal" d="M3.5136719 1039.8555a.50004994.50004994 0 0 0-.4921875.5058l0 1a.50004994.50004994 0 1 0 1 0l0-1a.50004994.50004994 0 0 0-.5078125-.5058zM9.5058594 1039.8555a.50004994.50004994 0 0 0-.4921875.5058l0 1a.50004994.50004994 0 1 0 1.0000001 0l0-1a.50004994.50004994 0 0 0-.5078126-.5058zM1.5136719 1044.3613a.50004994.50004994 0 1 0 0 1l4 0a.50004994.50004994 0 1 0 0-1l-4 0zM1.5136719 1048.3613a.50004994.50004994 0 1 0 0 1l4 0a.50004994.50004994 0 1 0 0-1l-4 0z" color="#000" font-family="sans-serif" font-weight="400" overflow="visible"/><path fill="#249fe6" style="line-height:normal;text-indent:0;text-align:start;text-decoration-line:none;text-decoration-style:solid;text-decoration-color:#000;text-transform:none;block-progression:tb;isolation:auto;mix-blend-mode:normal" d="m 9.5136719,1041.3613 c -1.3595644,0 -2.5,1.05 -2.5,2.375 l 0,6.25 c 0,1.3251 1.1404356,2.375 2.5,2.375 1.3595651,0 2.5000001,-1.0499 2.5000001,-2.375 l 0,-6.25 c 0,-1.325 -1.140435,-2.375 -2.5000001,-2.375 z m 0,1 c 0.8564361,0 1.5000001,0.6225 1.5000001,1.375 l 0,6.25 c 0,0.7526 -0.643564,1.375 -1.5000001,1.375 -0.8564357,0 -1.5,-0.6224 -1.5,-1.375 l 0,-6.25 c 0,-0.7525 0.6435643,-1.375 1.5,-1.375 z" color="#000" font-family="sans-serif" font-weight="400" overflow="visible"/><path fill="#249fe6" style="line-height:normal;text-indent:0;text-align:start;text-decoration-line:none;text-decoration-style:solid;text-decoration-color:#000;text-transform:none;block-progression:tb;isolation:auto;mix-blend-mode:normal" d="M7.5136719 1044.3613a.50004994.50004994 0 1 0 0 1l4.0000001 0a.50004994.50004994 0 1 0 0-1l-4.0000001 0zM7.5136719 1048.3613a.50004994.50004994 0 1 0 0 1l4.0000001 0a.50004994.50004994 0 1 0 0-1l-4.0000001 0zM1.5078125 1038.8555a.50004994.50004994 0 1 0 0 1l.90625 0a.50004994.50004994 0 1 0 0-1l-.90625 0z" color="#000" font-family="sans-serif" font-weight="400" overflow="visible"/><path fill="#249fe6" style="line-height:normal;text-indent:0;text-align:start;text-decoration-line:none;text-decoration-style:solid;text-decoration-color:#000;text-transform:none;block-progression:tb;isolation:auto;mix-blend-mode:normal" d="M3.5136719 1037.8613c-.8225048 0-1.5000001.6775-1.5 1.5-1e-7.8225.6774952 1.5 1.5 1.5.8225048 0 1.5000001-.6775 1.5-1.5 1e-7-.8225-.6774952-1.5-1.5-1.5zm0 1c.2820647 0 .5.218.5.5 0 .2821-.2179353.5-.5.5-.2820647 0-.5000001-.2179-.5-.5-1e-7-.282.2179353-.5.5-.5zM6.0078125 1045.3613a.50004994.50004994 0 1 0 0 1l1 0a.50004994.50004994 0 1 0 0-1l-1 0zM6.0078125 1047.3613a.50004994.50004994 0 1 0 0 1l1 0a.50004994.50004994 0 1 0 0-1l-1 0zM7.5078125 1038.8555a.50004994.50004994 0 1 0 0 1l1 0a.50004994.50004994 0 1 0 0-1l-1 0zm2.9999995 0a.50004994.50004994 0 1 0 0 1l1 0a.50004994.50004994 0 1 0 0-1l-1 0z" color="#000" font-family="sans-serif" font-weight="400" overflow="visible"/><path fill="#249fe6" style="line-height:normal;text-indent:0;text-align:start;text-decoration-line:none;text-decoration-style:solid;text-decoration-color:#000;text-transform:none;block-progression:tb;isolation:auto;mix-blend-mode:normal" d="M9.5078125 1037.8613c-.8225048 0-1.5000001.6775-1.5 1.5-1e-7.8225.6774952 1.5 1.5 1.5.8225045 0 1.5000005-.6775 1.4999995-1.5.000001-.8225-.677495-1.5-1.4999995-1.5zm0 1c.2820646 0 .5000005.218.4999995.5.000001.2821-.2179349.5-.4999995.5-.2820647 0-.5-.2179-.5-.5 0-.282.2179353-.5.5-.5zM4.0078125 1041.3613a.50004994.50004994 0 1 0 0 1l8.9921875 0c.562655 0 1 .4374 1 1l0 4.8516a.50004994.50004994 0 1 0 1 0l0-4.8516c0-1.0993-.900645-2-2-2l-8.9921875 0z" color="#000" font-family="sans-serif" font-weight="400" overflow="visible"/><path fill="#249fe6" style="line-height:normal;text-indent:0;text-align:start;text-decoration-line:none;text-decoration-style:solid;text-decoration-color:#000;text-transform:none;block-progression:tb;isolation:auto;mix-blend-mode:normal" d="M14.507812 1047.8613c-.822504 0-1.5.6775-1.5 1.5 0 .8225.677496 1.5 1.5 1.5.822505 0 1.500001-.6775 1.5-1.5.000001-.8225-.677495-1.5-1.5-1.5zm0 1c.282065 0 .500001.218.5.5.000001.2821-.217935.5-.5.5-.282064 0-.5-.2179-.5-.5 0-.282.217936-.5.5-.5zM4.6386719 1038.8555a.50004994.50004994 0 1 0 0 1l.8691406 0a.50004994.50004994 0 1 0 0-1l-.8691406 0z" color="#000" font-family="sans-serif" font-weight="400" overflow="visible"/></g></svg>