<svg xmlns="http://www.w3.org/2000/svg" data-name="Layer 1" viewBox="0 0 512 512"><defs><linearGradient id="a" x1="256" x2="256" y1="12" y2="504" gradientUnits="userSpaceOnUse"><stop offset="0" stop-color="#00efd1"/><stop offset="1" stop-color="#00acea"/></linearGradient></defs><g data-name="&lt;Group&gt;"><path fill="url(#a)" d="M436.348 204H75.652A49.437 49.437 0 0 0 26 253.62V482a10 10 0 0 0 20 0V439H466v43a10 10 0 0 0 20 0V253.62A49.437 49.437 0 0 0 436.348 204zm-360.7 20h360.7A29.415 29.415 0 0 1 466 253.62V337H368V308.451A40.8 40.8 0 0 0 327.573 268H184.427A40.8 40.8 0 0 0 144 308.451V337H46V253.62A29.415 29.415 0 0 1 75.652 224zM348 337H164V308.451A20.781 20.781 0 0 1 184.427 288H327.573A20.781 20.781 0 0 1 348 308.451zM46 419V357H466v62zM187 129h39v39a10 10 0 0 0 10 10h40a10 10 0 0 0 10-10V129h39a10 10 0 0 0 10-10V79a10 10 0 0 0-10-10H286V30a10 10 0 0 0-10-10H236a10 10 0 0 0-10 10V69H187a10 10 0 0 0-10 10v40A10 10 0 0 0 187 129zm10-40h39a10 10 0 0 0 10-10V40h20V79a10 10 0 0 0 10 10h39v20H276a10 10 0 0 0-10 10v39H246V119a10 10 0 0 0-10-10H197z" data-name="&lt;Compound Path&gt;"/></g></svg>