<svg xmlns="http://www.w3.org/2000/svg" viewBox="0 0 700.82 548.89"><defs><style>.cls-1{fill:#f0bc00;}.cls-2{fill:#e9e7c4;}.cls-3{fill:#049dff;}.cls-4,.cls-5{fill:none;stroke:#000;stroke-miterlimit:10;}.cls-4{stroke-width:9px;}.cls-5{stroke-width:9.75px;}</style></defs><g id="Camada_2" data-name="Camada 2"><g id="Layer_1" data-name="Layer 1"><path class="cls-1" d="M700.82,93.77V455.12c0,93.77-94,93.77-94,93.77H94c-94,0-94-93.77-94-93.77V93.77C0,0,94,0,94,0H606.82C700.82,0,700.82,93.77,700.82,93.77Z"/><rect class="cls-2" x="402.42" y="392.54" width="36.14" height="99.43" transform="translate(-134.52 188.55) rotate(-21.88)"/><rect class="cls-3" x="325.4" y="141.37" width="54.65" height="264.26" transform="translate(-76.51 151.14) rotate(-21.88)"/><rect class="cls-3" x="282.76" y="121.77" width="30.2" height="30.2" transform="translate(-29.55 120.85) rotate(-21.88)"/><rect class="cls-3" x="278.83" y="104.04" width="19.52" height="19.52" transform="translate(-21.62 115.74) rotate(-21.88)"/><rect class="cls-4" x="325.33" y="141.41" width="54.59" height="264.26" transform="translate(-76.54 151.1) rotate(-21.88)"/><rect class="cls-4" x="282.66" y="121.81" width="30.2" height="30.2" transform="translate(-29.57 120.82) rotate(-21.88)"/><rect class="cls-4" x="278.73" y="104.08" width="19.52" height="19.52" transform="translate(-21.64 115.7) rotate(-21.88)"/><line class="cls-4" x1="284.86" y1="104.78" x2="261.54" y2="46.71"/><line class="cls-4" x1="336.69" y1="422.33" x2="467.03" y2="369.99"/><line class="cls-4" x1="404.65" y1="502.18" x2="473.17" y2="474.67"/><rect class="cls-4" x="402.32" y="392.58" width="36.14" height="99.43" transform="translate(-134.54 188.51) rotate(-21.88)"/><line class="cls-4" x1="438.91" y1="488.42" x2="401.86" y2="396.16"/><line class="cls-4" x1="378.97" y1="384.41" x2="410.27" y2="371.84"/><line class="cls-4" x1="362.21" y1="342.68" x2="393.52" y2="330.11"/><line class="cls-4" x1="373.41" y1="370.56" x2="389.06" y2="364.28"/><line class="cls-4" x1="367.77" y1="356.53" x2="383.42" y2="350.24"/><line class="cls-4" x1="362.21" y1="342.68" x2="393.52" y2="330.11"/><line class="cls-4" x1="345.46" y1="300.96" x2="376.76" y2="288.39"/><line class="cls-4" x1="356.66" y1="328.84" x2="372.31" y2="322.55"/><line class="cls-4" x1="351.02" y1="314.81" x2="366.67" y2="308.52"/><line class="cls-4" x1="345.46" y1="300.96" x2="376.76" y2="288.39"/><line class="cls-4" x1="328.7" y1="259.24" x2="360.01" y2="246.67"/><line class="cls-4" x1="339.9" y1="287.12" x2="355.55" y2="280.83"/><line class="cls-4" x1="334.26" y1="273.08" x2="349.91" y2="266.8"/><line class="cls-4" x1="328.7" y1="259.24" x2="360.01" y2="246.67"/><line class="cls-4" x1="311.95" y1="217.52" x2="343.25" y2="204.94"/><line class="cls-4" x1="323.15" y1="245.39" x2="338.8" y2="239.11"/><line class="cls-4" x1="317.51" y1="231.36" x2="333.16" y2="225.08"/><line class="cls-4" x1="311.95" y1="217.52" x2="343.25" y2="204.94"/><line class="cls-4" x1="295.19" y1="175.79" x2="326.5" y2="163.22"/><line class="cls-4" x1="306.39" y1="203.67" x2="322.05" y2="197.38"/><line class="cls-4" x1="300.75" y1="189.64" x2="316.4" y2="183.35"/><line class="cls-5" x1="507.59" y1="237.73" x2="532.82" y2="231.31"/><line class="cls-5" x1="514.86" y1="287.42" x2="541.99" y2="284.89"/><line class="cls-5" x1="512.66" y1="334.18" x2="540.94" y2="338.36"/><line class="cls-5" x1="509.61" y1="384.24" x2="540.35" y2="396.85"/><line class="cls-5" x1="388.99" y1="82.22" x2="401.87" y2="59.59"/><line class="cls-5" x1="429.85" y1="111.43" x2="446.84" y2="90.12"/><line class="cls-5" x1="462.02" y1="145.43" x2="484.65" y2="127.94"/><line class="cls-5" x1="496" y1="182.33" x2="526.39" y2="168.92"/><line class="cls-5" x1="193.23" y1="303.3" x2="168" y2="309.72"/><line class="cls-5" x1="185.96" y1="253.61" x2="158.83" y2="256.14"/><line class="cls-5" x1="188.16" y1="206.85" x2="159.88" y2="202.67"/><line class="cls-5" x1="191.21" y1="156.79" x2="160.47" y2="144.18"/><line class="cls-5" x1="311.83" y1="458.81" x2="298.95" y2="481.44"/><line class="cls-5" x1="270.97" y1="429.6" x2="253.98" y2="450.91"/><line class="cls-5" x1="238.8" y1="395.6" x2="216.17" y2="413.09"/><line class="cls-5" x1="204.82" y1="358.7" x2="174.43" y2="372.11"/></g></g></svg>