<svg xmlns="http://www.w3.org/2000/svg" enable-background="new 0 0 468 468" viewBox="0 0 468 468"><path fill="#9ccc65" d="M269.45,403.439h-70.9V131.984c0-5.523,4.477-10,10-10h50.9c5.523,0,10,4.477,10,10V403.439z"/><path fill="#88ad57" d="M208.549,121.984c-5.522,0-9.999,4.477-9.999,10v271.456h17.998V121.984H208.549z"/><rect width="41.843" height="57.913" x="213.079" y="403.439" fill="#e0e0e0"/><rect width="17.998" height="57.913" x="213.079" y="403.439" fill="#c9c9c9"/><path fill="#e0e0e0" d="M259.571,121.984h-51.141V103.54c0-14.122,11.448-25.571,25.571-25.571h0
					c14.122,0,25.571,11.448,25.571,25.571V121.984z"/><path fill="#c9c9c9" d="M241.999,79.253c-2.517-0.829-5.205-1.284-7.999-1.284h0c-14.122,0-25.571,11.449-25.571,25.573
					v18.441h15.999v-18.441C224.428,92.214,231.797,82.613,241.999,79.253z"/><path fill="#333" d="M283.979,398.439h-9.529V131.983c0-6.471-4.126-11.981-9.879-14.081v-14.362
			c0-15.154-11.085-27.761-25.571-30.155V5c0-2.761-2.239-5-5-5s-5,2.239-5,5v68.385c-14.486,2.394-25.571,15.001-25.571,30.155
			v14.362c-5.753,2.099-9.879,7.61-9.879,14.081v266.456h-9.529c-2.761,0-5,2.239-5,5s2.239,5,5,5h24.058v47.913h-12.435
			c-2.761,0-5,2.239-5,5s2.239,5,5,5h76.712c2.761,0,5-2.239,5-5s-2.239-5-5-5h-12.435v-47.913h24.058c2.761,0,5-2.239,5-5
			S286.74,398.439,283.979,398.439z M213.429,103.541c0-11.343,9.228-20.571,20.571-20.571s20.571,9.228,20.571,20.571v13.443
			h-41.142V103.541z M249.921,456.352h-31.843v-47.913h31.843V456.352z M264.45,398.439h-60.9v-25.906h18.827c2.761,0,5-2.239,5-5
			s-2.239-5-5-5H203.55v-24.748H234c2.761,0,5-2.239,5-5s-2.239-5-5-5h-30.45v-24.748h18.827c2.761,0,5-2.239,5-5s-2.239-5-5-5
			H203.55v-24.748H234c2.761,0,5-2.239,5-5s-2.239-5-5-5h-30.45v-24.748h18.827c2.761,0,5-2.239,5-5s-2.239-5-5-5H203.55v-24.748
			H234c2.761,0,5-2.239,5-5s-2.239-5-5-5h-30.45v-24.748h18.827c2.761,0,5-2.239,5-5s-2.239-5-5-5H203.55v-22.064
			c0-2.757,2.243-5,5-5h50.9c2.757,0,5,2.243,5,5V398.439z"/><path fill="#99695c" d="M147.649,205.966h-59.73l-0.156,10.236c1.402,14.263-1.453,28.62-8.209,41.272h0
					c-5.618,10.521-8.557,22.264-8.557,34.191V388c0,5.523,4.477,10,9.999,10h73.577c5.522,0,9.999-4.477,9.999-10v-96.577
					c0-11.773-2.864-23.37-8.344-33.79l-0.384-0.729c-6.575-12.5-9.359-26.637-8.014-40.686L147.649,205.966z"/><path fill="#895b52" d="M94.373,259.681l1.179-2.208c6.756-12.651,9.612-27.009,8.209-41.272l0.156-10.236H87.918
					l-0.156,10.236c1.402,14.263-1.453,28.62-8.209,41.272c-5.618,10.521-8.557,22.264-8.557,34.191V388c0,5.523,4.477,10,9.999,10
					h5.999V289.161C86.995,278.878,89.529,268.752,94.373,259.681z"/><path fill="#ffd766" d="M149.815,205.966H85.752c-2.209,0-4-1.791-4-4v-27.963c0-2.209,1.791-4,4-4h64.063
					c2.209,0,4,1.791,4,4v27.963C153.815,204.175,152.024,205.966,149.815,205.966z"/><path fill="#ffc533" d="M85.752,170.002c-2.209,0-4,1.791-4,4v27.963c0,2.209,1.791,4,4,4h11.999v-35.963H85.752z"/><rect width="93.575" height="44.196" x="70.996" y="299.983" fill="#e0e0e0"/><rect width="15.999" height="44.196" x="70.996" y="299.983" fill="#c9c9c9"/><path fill="#99695c" d="M100.653,270.966h-59.73l-0.156,10.236c1.402,14.263-1.453,28.62-8.209,41.272h0
					C26.939,332.994,24,344.737,24,356.664V453c0,5.523,4.477,10,9.999,10h73.577c5.522,0,9.999-4.477,9.999-10v-96.577
					c0-11.773-2.864-23.37-8.344-33.79l-0.384-0.729c-6.575-12.5-9.359-26.637-8.014-40.686L100.653,270.966z"/><path fill="#895b52" d="M47.377,324.681l1.179-2.208c6.756-12.651,9.612-27.009,8.209-41.272l0.156-10.236H40.922
					l-0.156,10.236c1.402,14.263-1.453,28.62-8.209,41.272C26.939,332.994,24,344.737,24,356.664V453c0,5.523,4.477,10,9.999,10h6
					V354.161C39.999,343.878,42.533,333.752,47.377,324.681z"/><path fill="#ffd766" d="M102.819,270.966H38.756c-2.209,0-4-1.791-4-4v-27.963c0-2.209,1.791-4,4-4h64.063
					c2.209,0,4,1.791,4,4v27.963C106.819,269.175,105.028,270.966,102.819,270.966z"/><path fill="#ffc533" d="M38.756,235.002c-2.209,0-4,1.791-4,4v27.963c0,2.209,1.791,4,4,4h11.999v-35.963H38.756z"/><rect width="93.575" height="44.196" x="24" y="364.983" fill="#e0e0e0"/><rect width="15.999" height="44.196" x="24" y="364.983" fill="#c9c9c9"/><path fill="#ffd766" d="M427.078,270.966h-94.599l-0.156,10.236c1.402,14.263-1.453,28.62-8.209,41.272l0,0
					c-5.618,10.521-8.557,22.264-8.557,34.191V453c0,5.523,4.477,10,9.999,10h108.445c5.522,0,9.999-4.477,9.999-10v-96.577
					c0-11.773-2.864-23.37-8.344-33.79l-0.384-0.729c-6.575-12.5-9.359-26.637-8.014-40.686L427.078,270.966z"/><path fill="#ffc533" d="M340.933,324.681l1.179-2.208c6.756-12.651,9.612-27.009,8.209-41.272l0.156-10.236h-17.999
					l-0.156,10.236c1.402,14.263-1.453,28.62-8.209,41.272c-5.618,10.521-8.557,22.264-8.557,34.191V453c0,5.523,4.477,10,9.999,10
					h7.999V354.161C333.555,343.878,336.089,333.752,340.933,324.681z"/><path fill="#e0e0e0" d="M427.244,270.966h-94.931c-3.314,0-6-2.686-6-6v-26.28c0-3.314,2.686-6,6-6h94.931
					c3.314,0,6,2.686,6,6v26.28C433.244,268.279,430.557,270.966,427.244,270.966z"/><path fill="#c9c9c9" d="M332.312,232.686c-3.313,0-6,2.686-6,6v26.28c0,3.314,2.686,6,6,6h13.999v-38.28H332.312z"/><path fill="#fff" d="M365.932,398.983c-8.945,0-16.196,7.251-16.196,16.196s7.251,16.196,16.196,16.196h13.847
					v-32.392H365.932z"/><path fill="#29b6f6" d="M393.625,398.983h-13.847v32.392h13.847c8.945,0,16.196-7.251,16.196-16.196
						S402.569,398.983,393.625,398.983z"/><g><path fill="#fff" d="M395.974,325.332c0-8.945-7.251-16.196-16.196-16.196s-16.196,7.251-16.196,16.196v13.847h32.392
					V325.332z"/><path fill="#29b6f6" d="M395.974,353.025v-13.847h-32.392v13.847c0,8.945,7.251,16.196,16.196,16.196
						S395.974,361.97,395.974,353.025z"/></g><g><circle cx="70" cy="70" r="39.801" fill="#ed4848"/><path fill="#cc4040" d="M45.2,70c0-19.416,13.906-35.576,32.3-39.085c-2.43-0.464-4.935-0.716-7.5-0.716
						c-21.981,0-39.8,17.819-39.8,39.801s17.819,39.801,39.8,39.801c2.565,0,5.07-0.252,7.5-0.716
						C59.106,105.576,45.2,89.416,45.2,70z"/><circle cx="56.777" cy="62.932" r="10.947" fill="#383838"/><circle cx="71.67" cy="88.953" r="7" fill="#383838"/><circle cx="89.439" cy="67.772" r="5.385" fill="#383838"/><path fill="#383838" d="M130.472,60.472c-3.426,0-6.42,1.814-8.1,4.528h-7.858c-0.961-8.611-4.373-16.487-9.519-22.924
			l5.573-5.573c3.106,0.732,6.506-0.103,8.929-2.526c3.721-3.721,3.721-9.754,0-13.475c-3.721-3.721-9.754-3.721-13.475,0
			c-2.422,2.422-3.257,5.823-2.526,8.929l-5.573,5.573C91.487,29.858,83.611,26.447,75,25.486v-7.858
			c2.714-1.679,4.528-4.674,4.528-8.1C79.528,4.266,75.262,0,70,0c-5.262,0-9.528,4.266-9.528,9.528c0,3.426,1.814,6.42,4.528,8.1
			v7.858c-8.611,0.961-16.487,4.373-22.924,9.519l-5.573-5.573c0.732-3.106-0.103-6.507-2.526-8.929
			c-3.721-3.721-9.754-3.721-13.475,0c-3.721,3.721-3.721,9.754,0,13.475c2.422,2.422,5.823,3.257,8.929,2.526l5.573,5.573
			C29.858,48.513,26.447,56.389,25.486,65h-7.858c-1.679-2.714-4.674-4.528-8.1-4.528C4.266,60.472,0,64.738,0,70
			s4.266,9.528,9.528,9.528c3.426,0,6.42-1.814,8.1-4.528h7.858c0.961,8.611,4.373,16.487,9.519,22.924l-5.573,5.573
			c-3.106-0.732-6.506,0.103-8.929,2.526c-3.721,3.721-3.721,9.754,0,13.475c3.721,3.721,9.754,3.721,13.475,0
			c2.422-2.422,3.257-5.823,2.526-8.929l5.573-5.573c6.437,5.146,14.313,8.558,22.924,9.519v7.858
			c-2.714,1.679-4.528,4.674-4.528,8.1c0,5.262,4.266,9.528,9.528,9.528c5.262,0,9.528-4.266,9.528-9.528
			c0-3.426-1.814-6.42-4.528-8.1v-7.858c8.611-0.961,16.487-4.373,22.924-9.519l5.573,5.573c-0.732,3.106,0.103,6.506,2.526,8.929
			c3.721,3.721,9.754,3.721,13.475,0c3.721-3.721,3.721-9.754,0-13.475c-2.422-2.422-5.823-3.257-8.929-2.526l-5.573-5.573
			c5.146-6.437,8.558-14.313,9.519-22.924h7.858c1.679,2.714,4.674,4.528,8.1,4.528c5.262,0,9.528-4.266,9.528-9.528
			S135.734,60.472,130.472,60.472z M70,104.8c-19.189,0-34.8-15.611-34.8-34.8S50.811,35.2,70,35.2s34.8,15.611,34.8,34.8
			S89.189,104.8,70,104.8z"/></g><g><circle cx="398" cy="70" r="39.801" fill="#ed4848"/><path fill="#cc4040" d="M373.2,70c0-19.416,13.906-35.576,32.3-39.085c-2.43-0.464-4.935-0.716-7.5-0.716
						c-21.981,0-39.8,17.819-39.8,39.801s17.819,39.801,39.8,39.801c2.565,0,5.07-0.252,7.5-0.716
						C387.106,105.576,373.2,89.416,373.2,70z"/><circle cx="384.777" cy="62.932" r="10.947" fill="#383838"/><circle cx="399.67" cy="88.953" r="7" fill="#383838"/><circle cx="417.439" cy="67.772" r="5.385" fill="#383838"/><path fill="#383838" d="M458.472,60.472c-3.426,0-6.42,1.814-8.1,4.528h-7.858c-0.961-8.611-4.373-16.487-9.519-22.924
			l5.573-5.573c3.106,0.732,6.506-0.103,8.929-2.526c3.721-3.721,3.721-9.754,0-13.475c-3.721-3.721-9.754-3.721-13.475,0
			c-2.422,2.422-3.257,5.823-2.526,8.929l-5.573,5.573c-6.437-5.146-14.313-8.558-22.924-9.519v-7.858
			c2.714-1.679,4.528-4.674,4.528-8.1C407.528,4.266,403.262,0,398,0c-5.262,0-9.528,4.266-9.528,9.528
			c0,3.426,1.814,6.42,4.528,8.1v7.858c-8.611,0.961-16.487,4.373-22.924,9.519l-5.573-5.573c0.732-3.106-0.103-6.507-2.526-8.929
			c-3.721-3.721-9.754-3.721-13.475,0c-3.721,3.721-3.721,9.754,0,13.475c2.422,2.422,5.823,3.257,8.929,2.526l5.573,5.573
			c-5.146,6.437-8.558,14.313-9.519,22.924h-7.858c-1.679-2.714-4.674-4.528-8.1-4.528c-5.262,0-9.528,4.266-9.528,9.528
			s4.266,9.528,9.528,9.528c3.426,0,6.42-1.814,8.1-4.528h7.858c0.961,8.611,4.373,16.487,9.519,22.924l-5.573,5.573
			c-3.106-0.732-6.506,0.103-8.929,2.526c-3.721,3.721-3.721,9.754,0,13.475c3.721,3.721,9.754,3.721,13.475,0
			c2.422-2.422,3.257-5.823,2.526-8.929l5.573-5.573c6.437,5.146,14.313,8.558,22.924,9.519v7.858
			c-2.714,1.679-4.528,4.674-4.528,8.1c0,5.262,4.266,9.528,9.528,9.528c5.262,0,9.528-4.266,9.528-9.528
			c0-3.426-1.814-6.42-4.528-8.1v-7.858c8.611-0.961,16.487-4.373,22.924-9.519l5.573,5.573c-0.732,3.106,0.103,6.506,2.526,8.929
			c3.721,3.721,9.754,3.721,13.475,0c3.721-3.721,3.721-9.754,0-13.475c-2.422-2.422-5.823-3.257-8.929-2.526l-5.573-5.573
			c5.146-6.437,8.558-14.313,9.519-22.924h7.858c1.679,2.714,4.674,4.528,8.1,4.528c5.262,0,9.528-4.266,9.528-9.528
			S463.734,60.472,458.472,60.472z M398,104.8c-19.189,0-34.8-15.611-34.8-34.8s15.611-34.8,34.8-34.8s34.8,15.611,34.8,34.8
			S417.189,104.8,398,104.8z"/></g><path fill="#333" d="M160.653 255.308c-6.991-12.681-7.57-25.141-7.825-39.178l-.1-5.658c3.535-1.215 6.087-4.565 6.087-8.507v-27.963c0-4.962-4.038-9-9-9H85.752c-4.962 0-9 4.038-9 9v27.963c0 3.946 2.556 7.299 6.097 8.51 0 0 .357 15.129-.083 19.527h-44.01c-4.962 0-9 4.038-9 9v27.963c0 3.946 2.556 7.299 6.097 8.51l-.086 5.649c-.218 14.029-.836 26.287-7.621 38.993C22.163 331.323 19 343.96 19 356.664V453c0 8.271 6.729 15 14.999 15h73.577c8.271 0 14.999-6.729 14.999-15v-50h31.997c8.271 0 14.999-6.729 14.999-15v-96.577C169.571 278.889 166.487 266.399 160.653 255.308zM151.417 259.229c6.054 11.002 8.292 23.311 8.154 35.753h-53.714c-.446-4.391-.124-19.511-.124-19.511 3.535-1.215 6.086-4.565 6.086-8.506v-27.963c0-4.962-4.038-9-9-9h-9.998c.4-4.632.022-19.037.022-19.037h49.893l.089 5.062C141.448 230.989 144.417 245.922 151.417 259.229zM86.752 175.002h62.063v25.963H86.752V175.002zM39.756 240.002h62.063v25.963H39.756V240.002zM112.575 453c0 2.757-2.243 5-4.999 5H33.999c-2.756 0-4.999-2.243-4.999-5v-38.821h83.575V453zM112.575 404.179H29v-34.196h83.575V404.179zM112.575 359.983H29c-.128-11.963 2.316-24.57 7.968-35.154 7.199-13.482 10.241-28.631 8.803-43.83l.076-5.033H95.74l.089 5.062c-1.377 14.961 1.592 29.895 8.592 43.202C110.475 335.231 112.713 347.541 112.575 359.983zM113.657 320.308c-2.612-4.843-4.637-9.996-6.012-15.325h51.926v34.196h-38.954C119.121 332.626 116.79 326.264 113.657 320.308zM154.572 393h-31.997v-36.577c0-2.42-.118-4.837-.345-7.244h37.341V388C159.571 390.757 157.328 393 154.572 393zM440.081 320.305c-6.992-12.679-7.569-25.141-7.823-39.175l-.112-6.332c3.609-1.807 6.098-5.53 6.098-9.833v-26.279c0-6.065-4.935-11-11-11h-94.931c-6.065 0-11 4.935-11 11v26.279c0 4.306 2.493 8.032 6.107 9.837l-.096 6.322c-.217 14.029-.836 26.287-7.621 38.993-5.983 11.205-9.146 23.843-9.146 36.546V453c0 8.271 6.729 15 14.999 15h108.446c8.271 0 14.999-6.729 14.999-15v-96.577C449 343.889 445.916 331.399 440.081 320.305zM331.313 238.686c0-.551.449-1 1-1h94.931c.551 0 1 .449 1 1v26.279c0 .551-.449 1-1 1h-94.931c-.551 0-1-.449-1-1V238.686zM439 453c0 2.757-2.243 5-4.999 5H325.555c-2.756 0-4.999-2.243-4.999-5v-96.336c0-11.066 2.755-22.075 7.968-31.835 7.199-13.482 10.241-28.631 8.802-43.83l.077-5.033h84.762l.089 5.062c-1.377 14.96 1.591 29.894 8.593 43.205 5.311 9.854 8.153 20.993 8.153 32.191V453z"/><path fill="#333" d="M393.625 393.983h-27.693c-11.688 0-21.196 9.508-21.196 21.196s9.509 21.196 21.196 21.196h27.693c11.688 0 21.196-9.508 21.196-21.196S405.312 393.983 393.625 393.983zM354.735 415.179c0-6.173 5.022-11.196 11.196-11.196h8.847v22.392h-8.847C359.758 426.375 354.735 421.352 354.735 415.179zM393.625 426.375h-8.846v-22.392h8.846c6.173 0 11.196 5.022 11.196 11.196S399.798 426.375 393.625 426.375zM379.778 304.136c-11.688 0-21.196 9.508-21.196 21.196v27.693c0 11.688 9.509 21.196 21.196 21.196s21.196-9.508 21.196-21.196v-27.693C400.974 313.645 391.466 304.136 379.778 304.136zM368.582 325.332c0-6.173 5.022-11.196 11.196-11.196 6.173 0 11.196 5.022 11.196 11.196v8.847h-22.392V325.332zM390.974 353.025c0 6.173-5.022 11.196-11.196 11.196-6.174 0-11.196-5.022-11.196-11.196v-8.847h22.392V353.025z"/></svg>